# xmcd
#
# Track frame offsets: 
#        150
#        13260
#        26540
#        38680
#        53251
#        65908
#        79511
#        93220
#        109470
#        127557
#        142451
#
# Disc length: 2126 seconds
#
# Revision: 0
# Processed by: cddbd v1.5.2PL0 Copyright (c) Steve Scherf et al.
# Submitted via: ExactAudioCopy v1.3
#
DISCID=8b084c0b
DTITLE=Jimmie Vaughan - Baby, Please Come Home
DYEAR=2019
DGENRE=Blues
TTITLE0=Baby, Please Come Home
TTITLE1=Just a Game
TTITLE2=No One to Talk to (but the Blues)
TTITLE3=Be my Lovey Dovey
TTITLE4=What's Your Name?
TTITLE5=Hold It
TTITLE6=I'm Still in Love with You
TTITLE7=It's Love Baby (24 hours a day)
TTITLE8=So Glad
TTITLE9=Midnight Hour
TTITLE10=Baby, What's Wrong
EXTD=
EXTT0=
EXTT1=
EXTT2=
EXTT3=
EXTT4=
EXTT5=
EXTT6=
EXTT7=
EXTT8=
EXTT9=
EXTT10=
PLAYORDER=
